PathFileType	4	(X/Y/Z)	/Users/itak/Documents/Research/Walk-IL/dataset/trc/00027_00004.trc
DataRate	CameraRate	NumFrames	NumMarkers	Units	OrigDataRate	OrigDataStartFrame	OrigNumFrames
100.000000	100.000000	4	53	mm	100.000000	229	613
Frame#	Time	RPSI			LPSI			L3			STRN			T10			C7			CLAV			RBAK			LBAK			LSHO			LUPA			LAEL			LAOL			LWTS			LWPS			LFRA			LIFD			LHPS			LHTS			RSHO			RUPA			RAEL			RAOL			RWTS			RWPS			RFRA			RIFD			RHTS			RHPS			RBHD			LFHD			RFHD			LBHD			LHIP			RHIP			RASI			LASI			LKNE			LTHI			LANK			LTIP			LTOE			LMT1			LMT5			LHEE			RKNE			RTHI			RANK			RTIP			RTOE			RMT1			RMT5			RHEE			
		X1	Y1	Z1	X2	Y2	Z2	X3	Y3	Z3	X4	Y4	Z4	X5	Y5	Z5	X6	Y6	Z6	X7	Y7	Z7	X8	Y8	Z8	X9	Y9	Z9	X10	Y10	Z10	X11	Y11	Z11	X12	Y12	Z12	X13	Y13	Z13	X14	Y14	Z14	X15	Y15	Z15	X16	Y16	Z16	X17	Y17	Z17	X18	Y18	Z18	X19	Y19	Z19	X20	Y20	Z20	X21	Y21	Z21	X22	Y22	Z22	X23	Y23	Z23	X24	Y24	Z24	X25	Y25	Z25	X26	Y26	Z26	X27	Y27	Z27	X28	Y28	Z28	X29	Y29	Z29	X30	Y30	Z30	X31	Y31	Z31	X32	Y32	Z32	X33	Y33	Z33	X34	Y34	Z34	X35	Y35	Z35	X36	Y36	Z36	X37	Y37	Z37	X38	Y38	Z38	X39	Y39	Z39	X40	Y40	Z40	X41	Y41	Z41	X42	Y42	Z42	X43	Y43	Z43	X44	Y44	Z44	X45	Y45	Z45	X46	Y46	Z46	X47	Y47	Z47	X48	Y48	Z48	X49	Y49	Z49	X50	Y50	Z50	X51	Y51	Z51	X52	Y52	Z52	X53	Y53	Z53	

230	2.29	456.8368530273438	1064.792724609375	-729.4122924804688	430.1097717285156	1046.663208007812	-569.4749755859375	448.4969787597656	1115.96630859375	-638.3711547851562	227.3717041015625	1307.289184570312	-676.588623046875	469.2224731445312	1261.312255859375	-632.5237426757812	415.2987976074219	1527.197021484375	-619.40478515625	263.6914978027344	1433.095947265625	-658.0172729492188	486.8443603515625	1396.658325195312	-695.3009643554688	415.7369384765625	1481.257202148438	-523.9456787109375	302.071044921875	1482.139404296875	-468.952880859375	333.6222229003906	1359.877807617188	-387.4736633300781	363.1011352539062	1147.40283203125	-355.8323669433594	429.5265197753906	1143.187255859375	-439.3437805175781	344.539306640625	876.4334716796875	-401.0691223144531	418.0137939453125	885.6823120117188	-349.4907531738281	376.0448608398438	1032.328125	-342.9974060058594	374.9068298339844	690.2678833007812	-405.2969970703125	411.6791381835938	790.6780395507812	-345.7324829101562	349.2090759277344	781.36181640625	-381.7259216308594	374.8701477050781	1522.592651367188	-803.409912109375	401.7662658691406	1459.340209960938	-876.7525024414062	422.0663452148438	1193.309326171875	-936.494140625	402.6257934570312	1152.443969726562	-846.264404296875	218.8058929443359	981.9910278320312	-961.8878784179688	285.8466491699219	955.42822265625	-1019.818359375	394.4486694335938	1122.068481445312	-965.9097900390625	144.2961883544922	812.7365112304688	-989.267822265625	154.7694549560547	894.4334716796875	-1001.640686035156	215.6591033935547	876.8196411132812	-1043.596313476562	344.5386352539062	1705.1953125	-568.012451171875	143.5054779052734	1692.213500976562	-653.9623413085938	165.7923431396484	1681.59716796875	-557.8469848632812	309.7785034179688	1716.8935546875	-707.5302124023438	311.4507751464844	935.3488159179688	-481.5411682128906	362.5345458984375	958.9228515625	-854.6080322265625	246.4786376953125	989.2916259765625	-799.0877685546875	215.4181518554688	992.1548461914062	-565.8948364257812	140.4680480957031	512.8223266601562	-594.702392578125	202.7410736083984	641.8882446289062	-536.9034423828125	498.6890869140625	152.2322082519531	-537.4044799804688	327.4727172851562	335.3406982421875	-546.6627197265625	348.4506225585938	39.0349235534668	-658.9639892578125	396.0715942382812	76.37540435791016	-658.9998779296875	396.14892578125	82.5157470703125	-554.394775390625	562.3532104492188	202.6219024658203	-569.6709594726562	298.1195678710938	524.3147583007812	-841.98681640625	325.6148986816406	795.1273193359375	-869.6708984375	423.2879943847656	39.81826400756836	-811.9327392578125	321.7940979003906	397.3180847167969	-843.8069458007812	188.3017425537109	39.5020866394043	-832.3604125976562	241.4314422607422	45.82472610473633	-788.0907592773438	286.1273193359375	36.54182052612305	-874.6524047851562	466.2569274902344	44.18884658813477	-754.761962890625	
231	2.3	449.2363586425781	1065.499389648438	-732.52734375	423.1676330566406	1047.492797851562	-572.4102172851562	441.1985778808594	1116.804321289062	-641.6297607421875	219.3699493408203	1307.81982421875	-678.0783081054688	461.6172790527344	1262.1279296875	-636.6576538085938	407.6667785644531	1527.97802734375	-622.9877319335938	256.3857116699219	1433.623046875	-659.7928466796875	478.5302734375	1397.58203125	-699.80029296875	409.2716674804688	1482.037475585938	-527.6473999023438	296.2925720214844	1482.791870117188	-471.2456359863281	329.5553283691406	1360.8701171875	-390.1837463378906	360.8642272949219	1148.697631835938	-358.450927734375	425.7213745117188	1144.544921875	-443.2008972167969	342.3289489746094	877.6532592773438	-402.6532897949219	416.9014587402344	887.20458984375	-352.7480773925781	374.5165100097656	1033.70751953125	-345.5184020996094	372.6814270019531	691.5226440429688	-406.8330078125	410.8420715332031	792.1714477539062	-348.4423828125	347.8399658203125	782.660888671875	-383.0761108398438	365.1082458496094	1523.517700195312	-806.4456176757812	391.0048828125	1460.316772460938	-880.2068481445312	409.4022827148438	1194.283447265625	-940.8901977539062	391.03759765625	1153.275634765625	-850.37890625	201.9241027832031	986.6929931640625	-962.5094604492188	267.2125549316406	959.0639038085938	-1022.037902832031	380.1804809570312	1123.232055664062	-969.96923828125	123.2689666748047	819.2568359375	-988.6217651367188	135.1179962158203	900.7339477539062	-1001.087585449219	194.6626586914062	881.8313598632812	-1044.343627929688	337.3360595703125	1705.836547851562	-570.61474609375	135.2218933105469	1692.661010742188	-654.208251953125	158.7285461425781	1682.007080078125	-558.3438720703125	300.8202514648438	1717.549926757812	-709.6170654296875	304.5802917480469	936.7861938476562	-483.8068542480469	354.9278869628906	958.9777221679688	-857.022705078125	239.0840301513672	989.3366088867188	-801.4132080078125	208.7027740478516	993.2066650390625	-568.1307983398438	126.9178924560547	517.2130737304688	-595.5469970703125	191.6775970458984	644.9005737304688	-537.8937377929688	472.9222412109375	142.6498107910156	-549.1704711914062	308.8218078613281	332.5362548828125	-552.6664428710938	315.587646484375	39.22275161743164	-670.4496459960938	364.9427490234375	74.18770599365234	-670.4723510742188	367.1213073730469	77.99001312255859	-565.8088989257812	538.1998901367188	190.9315185546875	-581.6797485351562	296.5404357910156	523.6480102539062	-843.3430786132812	319.8633422851562	794.8629760742188	-871.7182006835938	423.3369750976562	39.8690071105957	-811.891845703125	321.0329895019531	397.0184936523438	-844.6795654296875	188.2912750244141	39.49021530151367	-832.449951171875	241.4806365966797	45.84749221801758	-788.1907348632812	286.0986938476562	36.52083969116211	-874.7360229492188	465.9996948242188	43.93297576904297	-754.516845703125	
232	2.31	441.654296875	1066.056274414062	-735.5435791015625	416.2218322753906	1048.143432617188	-575.24560546875	433.8735961914062	1117.498657226562	-644.7660522460938	211.4111480712891	1308.148559570312	-679.5203247070312	454.0136413574219	1262.777709960938	-640.6194458007812	399.9949645996094	1528.58251953125	-626.4141845703125	249.1068572998047	1433.951049804688	-661.4942626953125	470.2294921875	1398.34375	-704.10791015625	402.7270812988281	1482.625854492188	-531.197021484375	290.4127807617188	1483.217041015625	-473.4600219726562	325.3034362792969	1361.57958984375	-392.8880004882812	358.3529357910156	1149.704956054688	-361.1455383300781	421.64013671875	1145.603393554688	-447.0859680175781	339.7933959960938	878.6060180664062	-404.3984680175781	415.4332885742188	888.4361572265625	-356.1641235351562	372.6617736816406	1034.788452148438	-348.1741333007812	370.1457824707031	692.497314453125	-408.5680236816406	409.6370544433594	793.371826171875	-351.33740234375	346.1739501953125	783.617431640625	-384.5826110839844	355.3955078125	1524.236694335938	-809.3466186523438	380.3304138183594	1461.085327148438	-883.4945068359375	396.8313903808594	1195.052490234375	-945.0628051757812	379.54296875	1153.896240234375	-854.2908935546875	185.4010467529297	991.1524658203125	-962.8447875976562	248.9356231689453	962.5469970703125	-1023.9130859375	366.0696105957031	1124.232666015625	-973.8009643554688	102.7576217651367	825.5409545898438	-987.5541381835938	115.9643173217773	906.76416015625	-1000.176208496094	174.1619567871094	886.6644287109375	-1044.696533203125	330.1399536132812	1706.296508789062	-573.135009765625	126.9190139770508	1692.944091796875	-654.3733520507812	151.6728820800781	1682.255126953125	-558.759765625	291.8671569824219	1718.033935546875	-711.60107421875	297.8136596679688	938.0369262695312	-485.9515075683594	347.2612609863281	958.919677734375	-859.349609375	231.8352661132812	989.2042846679688	-803.5946044921875	201.9374847412109	994.0521240234375	-570.248779296875	113.7474365234375	521.4195556640625	-596.02783203125	180.9142150878906	647.7186279296875	-538.6263427734375	446.4364929199219	133.1371154785156	-560.4518432617188	290.04931640625	329.6385192871094	-558.2571411132812	282.258544921875	39.47909545898438	-680.6380004882812	333.2114562988281	72.01998138427734	-680.9214477539062	337.5708312988281	73.67536926269531	-576.2487182617188	513.1542358398438	179.1636352539062	-593.4437866210938	294.8359985351562	522.9500732421875	-844.6528930664062	313.9991149902344	794.5195922851562	-873.627197265625	423.3338623046875	39.93357086181641	-811.8357543945312	320.14501953125	396.6951904296875	-845.4912719726562	188.2742004394531	39.47472763061523	-832.5411376953125	241.5210571289062	45.85976409912109	-788.2774658203125	286.0818786621094	36.50282287597656	-874.8147583007812	465.6883544921875	43.65863800048828	-754.2653198242188	
233	2.32	434.0740356445312	1066.455932617188	-738.4645385742188	409.2773132324219	1048.62353515625	-577.9923095703125	426.5339965820312	1118.050170898438	-647.7915649414062	203.4931945800781	1308.284301757812	-680.9124755859375	446.4117736816406	1263.263671875	-644.406982421875	392.2861022949219	1529.014526367188	-629.6854248046875	241.7490692138672	1434.096313476562	-663.1289672851562	461.9437255859375	1398.947631835938	-708.218505859375	396.1053771972656	1483.028076171875	-534.5896606445312	284.435302734375	1483.4248046875	-475.5921020507812	320.8482971191406	1362.008544921875	-395.5722961425781	355.5353088378906	1150.42626953125	-363.9020080566406	417.2683410644531	1146.368408203125	-450.9750671386719	336.9501342773438	879.2756958007812	-406.3179626464844	413.5774841308594	889.3746948242188	-359.7023620605469	370.4392395019531	1035.568725585938	-350.9549560546875	367.3478088378906	693.18896484375	-410.5304870605469	408.0441589355469	794.2796020507812	-354.4045104980469	344.1421813964844	784.2431640625	-386.2817077636719	345.7395324707031	1524.756713867188	-812.1110229492188	369.7466125488281	1461.650024414062	-886.6159057617188	384.3455505371094	1195.607421875	-948.9952392578125	368.146484375	1154.3125	-857.9957275390625	169.2427673339844	995.3507690429688	-962.91162109375	231.0195465087891	965.833251953125	-1025.44140625	352.1259155273438	1125.0751953125	-977.4024658203125	82.72837066650391	831.5599975585938	-986.1053466796875	97.33304595947266	912.4920654296875	-998.934326171875	154.1862335205078	891.2882080078125	-1044.678588867188	322.9335021972656	1706.580688476562	-575.5686645507812	118.5887451171875	1693.058715820312	-654.4649658203125	144.6236114501953	1682.340698242188	-559.0966796875	282.9180908203125	1718.3486328125	-713.4876098632812	291.1004943847656	939.1034545898438	-487.9742736816406	339.5139465332031	958.7578735351562	-861.5888061523438	224.6678466796875	988.9140625	-805.6213989257812	195.1096343994141	994.70068359375	-572.2316284179688	100.9598083496094	525.4169311523438	-596.1761474609375	170.4619598388672	650.3143920898438	-539.117431640625	419.2879638671875	123.8756256103516	-571.1598510742188	271.2065124511719	326.7334594726562	-563.4335327148438	248.5374450683594	39.81041717529297	-689.3214111328125	300.9371643066406	69.90158843994141	-690.1796264648438	307.5931091308594	69.70922088623047	-585.5567626953125	487.2521667480469	167.4906005859375	-604.935302734375	292.9836730957031	522.2210083007812	-845.92138671875	308.0050354003906	794.0977783203125	-875.394775390625	423.2904968261719	40.03266525268555	-811.7704467773438	319.1256103515625	396.3458862304688	-846.2451782226562	188.2533874511719	39.45525741577148	-832.6337280273438	241.5490875244141	45.86321640014648	-788.3527221679688	286.0758666992188	36.48722457885742	-874.888671875	465.3888244628906	43.46482849121094	-754.0421142578125	
